<?xml version="1.0" encoding="utf-8"?>
<!-- Generator: Adobe Illustrator 20.0.0, SVG Export Plug-In . SVG Version: 6.00 Build 0)  -->
<svg version="1.1" id="图层_1" xmlns="http://www.w3.org/2000/svg" xmlns:xlink="http://www.w3.org/1999/xlink" x="0px" y="0px"
	 viewBox="0 0 40 40" style="enable-background:new 0 0 40 40;" xml:space="preserve">
<style type="text/css">
	.st0{fill:none;}
	.st1{fill:#FFFFFF;}
</style>
<g>
	<rect class="st0" width="40" height="40"/>
	<g>
		<path class="st1" d="M20,1.8C9.6,1.8,1.2,9.5,1.2,18.9c0,5.6,3,10.9,8,14.1l-3.8,5.2c-0.1,0.2-0.1,0.4,0,0.6
			C5.5,38.9,5.7,39,5.8,39c0,0,0.1,0,0.1,0l14.1-2.9c10.4,0,18.8-7.7,18.8-17.2C38.8,9.5,30.4,1.8,20,1.8z M20,35.1c0,0-0.1,0-0.1,0
			L7,37.8l3.3-4.6c0.1-0.1,0.1-0.3,0.1-0.4s-0.1-0.3-0.2-0.3c-5-3-8-8-8-13.5c0-8.9,8-16.2,17.8-16.2S37.8,10,37.8,18.9
			S29.8,35.1,20,35.1z"/>
		<rect x="10" y="11.9" class="st1" width="20" height="2"/>
		<rect x="10" y="17.9" class="st1" width="20" height="2"/>
		<rect x="10" y="23.9" class="st1" width="14" height="2"/>
	</g>
</g>
</svg>
