<?xml version="1.0" encoding="utf-8"?>
<!-- Generator: Adobe Illustrator 20.0.0, SVG Export Plug-In . SVG Version: 6.00 Build 0)  -->
<svg version="1.1" id="图层_1" xmlns="http://www.w3.org/2000/svg" xmlns:xlink="http://www.w3.org/1999/xlink" x="0px" y="0px"
	 viewBox="0 0 40 40" style="enable-background:new 0 0 40 40;" xml:space="preserve">
<style type="text/css">
	.st0{fill:#FFFFFF;}
	.st1{fill:none;}
</style>
<g>
	<path class="st0" d="M30.5,2.8H2.8v4.3h27.7V2.8z M29.5,6.2H3.8V3.8h25.7V6.2z"/>
	<path class="st0" d="M24.5,10.3v4.3h14.3v-4.3H24.5z M37.8,13.7H25.5v-2.3h12.3V13.7z"/>
	<path class="st0" d="M30.2,17.8h-21v4.3h21V17.8z M29.2,21.2h-19v-2.3h19V21.2z"/>
	<path class="st0" d="M28.8,25.3H1.2v4.3h27.7V25.3z M27.8,28.7H2.2v-2.3h25.7V28.7z"/>
	<path class="st0" d="M9.5,37.2h27.7v-4.3H9.5V37.2z M10.5,33.8h25.7v2.3H10.5V33.8z"/>
</g>
<rect class="st1" width="40" height="40"/>
</svg>
