<?xml version="1.0" encoding="utf-8"?>
<!-- Generator: Adobe Illustrator 20.0.0, SVG Export Plug-In . SVG Version: 6.00 Build 0)  -->
<svg version="1.1" id="图层_1" xmlns="http://www.w3.org/2000/svg" xmlns:xlink="http://www.w3.org/1999/xlink" x="0px" y="0px"
	 viewBox="0 0 40 40" style="enable-background:new 0 0 40 40;" xml:space="preserve">
<style type="text/css">
	.st0{fill:#FFFFFF;}
	.st1{fill:none;}
</style>
<g>
	<g>
		<polygon class="st0" points="15.2,14.5 5.4,4.6 4.6,5.4 14.5,15.2 5.7,15.2 5.7,16.2 16.2,16.2 16.2,5.7 15.2,5.7 		"/>
		<polygon class="st0" points="34.3,15.2 25.5,15.2 35.4,5.4 34.6,4.6 24.8,14.5 24.8,5.7 23.8,5.7 23.8,16.2 34.3,16.2 		"/>
		<polygon class="st0" points="34.3,24.8 34.3,23.8 23.8,23.8 23.8,34.3 24.8,34.3 24.8,25.5 34.6,35.4 35.4,34.6 25.5,24.8 		"/>
		<polygon class="st0" points="5.7,24.8 14.5,24.8 4.6,34.6 5.4,35.4 15.2,25.5 15.2,34.3 16.2,34.3 16.2,23.8 5.7,23.8 		"/>
	</g>
	<rect class="st1" width="40" height="40"/>
</g>
</svg>
