<?xml version="1.0" encoding="utf-8"?>
<!-- Generator: Adobe Illustrator 20.0.0, SVG Export Plug-In . SVG Version: 6.00 Build 0)  -->
<svg version="1.1" id="图层_1" xmlns="http://www.w3.org/2000/svg" xmlns:xlink="http://www.w3.org/1999/xlink" x="0px" y="0px"
	 viewBox="0 0 40 40" style="enable-background:new 0 0 40 40;" xml:space="preserve">
<style type="text/css">
	.st0{fill:#FFFFFF;}
	.st1{fill:none;}
</style>
<g>
	<g>
		<polygon class="st0" points="3.2,17 4.2,17 4.2,4.9 13.3,14 14,13.3 4.9,4.2 17,4.2 17,3.2 3.2,3.2 		"/>
		<polygon class="st0" points="23,3.2 23,4.2 35.1,4.2 26,13.3 26.7,14 35.8,4.9 35.8,17 36.8,17 36.8,3.2 		"/>
		<polygon class="st0" points="35.8,35.1 26.7,26 26,26.7 35.1,35.8 23,35.8 23,36.8 36.8,36.8 36.8,23 35.8,23 		"/>
		<polygon class="st0" points="14,26.7 13.3,26 4.2,35.1 4.2,23 3.2,23 3.2,36.8 17,36.8 17,35.8 4.9,35.8 		"/>
	</g>
	<rect class="st1" width="40" height="40"/>
</g>
</svg>
