<?xml version="1.0" encoding="utf-8"?>
<!-- Generator: Adobe Illustrator 20.0.0, SVG Export Plug-In . SVG Version: 6.00 Build 0)  -->
<svg version="1.1" id="图层_1" xmlns="http://www.w3.org/2000/svg" xmlns:xlink="http://www.w3.org/1999/xlink" x="0px" y="0px"
	 viewBox="0 0 40 40" style="enable-background:new 0 0 40 40;" xml:space="preserve">
<style type="text/css">
	.st0{fill:none;}
	.st1{fill:#FFFFFF;}
</style>
<g>
	<rect class="st0" width="40" height="40"/>
	<g>
		<path class="st1" d="M37.5,7.8H21.2L27,2c0.2-0.2,0.2-0.5,0-0.7s-0.5-0.2-0.7,0L20,7.6l-6.3-6.3c-0.2-0.2-0.5-0.2-0.7,0
			S12.8,1.8,13,2l5.8,5.8H2.5C2.2,7.8,2,8.1,2,8.3V35c0,0.3,0.2,0.5,0.5,0.5h6.7l-1.3,2.6c-0.1,0.2,0,0.5,0.2,0.7
			c0.1,0,0.1,0.1,0.2,0.1c0.2,0,0.4-0.1,0.4-0.3l1.5-3.1h19.4l1.5,3.1c0.1,0.2,0.3,0.3,0.4,0.3c0.1,0,0.2,0,0.2-0.1
			c0.2-0.1,0.3-0.4,0.2-0.7l-1.3-2.6h6.7c0.3,0,0.5-0.2,0.5-0.5V8.3C38,8.1,37.8,7.8,37.5,7.8z M37,34.5H3V8.8h34V34.5z"/>
		<polygon class="st1" points="16.7,27.9 25,21.7 16.7,15.4 		"/>
	</g>
</g>
</svg>
