<?xml version="1.0" encoding="utf-8"?>
<!-- Generated by IcoMoon.io -->
<!DOCTYPE svg PUBLIC "-//W3C//DTD SVG 1.1//EN" "http://www.w3.org/Graphics/SVG/1.1/DTD/svg11.dtd">
<svg version="1.1" xmlns="http://www.w3.org/2000/svg" xmlns:xlink="http://www.w3.org/1999/xlink" width="32" height="368" viewBox="0 0 32 368">
<svg id="icon-pause" width="32" height="32" viewBox="0 0 32 32" x="0" y="0">
<path fill="#000" opacity="0.1" d="M32 16c0 8.837-7.163 16-16 16s-16-7.163-16-16c0-8.837 7.163-16 16-16s16 7.163 16 16z"></path>
<path fill="#fff" d="M16 0.267c8.689 0 15.733 7.044 15.733 15.733s-7.044 15.733-15.733 15.733c-8.689 0-15.733-7.044-15.733-15.733 0.011-8.685 7.048-15.723 15.732-15.733zM16 0c-8.837 0-16 7.163-16 16s7.163 16 16 16c8.837 0 16-7.163 16-16s-7.163-16-16-16z"></path>
<path fill="none" stroke="#fff" stroke-width="2.1333" stroke-miterlimit="10" stroke-linecap="butt" stroke-linejoin="miter" d="M13.333 11.2v9.6"></path>
<path fill="none" stroke="#fff" stroke-width="2.1333" stroke-miterlimit="10" stroke-linecap="butt" stroke-linejoin="miter" d="M18.667 11.2v9.6"></path>
</svg>
<svg id="icon-play" width="32" height="32" viewBox="0 0 32 32" x="0" y="42">
<path fill="#000" opacity="0.1" d="M32 16c0 8.837-7.163 16-16 16s-16-7.163-16-16c0-8.837 7.163-16 16-16s16 7.163 16 16z"></path>
<path fill="#fff" d="M16 0.267c8.689 0 15.733 7.044 15.733 15.733s-7.044 15.733-15.733 15.733c-8.689 0-15.733-7.044-15.733-15.733 0.011-8.685 7.048-15.723 15.732-15.733zM16 0c-8.837 0-16 7.163-16 16s7.163 16 16 16c8.837 0 16-7.163 16-16s-7.163-16-16-16z"></path>
<path fill="#fff" d="M13.333 10l8 6-8 6v-12z"></path>
</svg>
<svg id="icon-danmu" width="32" height="32" viewBox="0 0 32 32" x="0" y="84">
<path fill="#fff" d="M2.24 2.24h22.16v3.44h-22.16v-3.44z"></path>
<path fill="#fff" d="M19.6 8.24h11.44v3.44h-11.44v-3.44z"></path>
<path fill="#fff" d="M7.36 14.24h16.8v3.44h-16.8v-3.44z"></path>
<path fill="#fff" d="M0.96 20.24h22.16v3.44h-22.16v-3.44z"></path>
<path fill="#fff" d="M7.6 26.24h22.16v3.44h-22.16v-3.44z"></path>
</svg>
<svg id="icon-danmu_close" width="32" height="32" viewBox="0 0 32 32" x="0" y="126">
<path fill="#fff" d="M24.4 2.24h-22.16v3.44h22.16v-3.44zM23.6 4.96h-20.56v-1.92h20.56v1.92z"></path>
<path fill="#fff" d="M19.6 8.24v3.44h11.44v-3.44h-11.44zM30.24 10.96h-9.84v-1.84h9.84v1.84z"></path>
<path fill="#fff" d="M24.16 14.24h-16.8v3.44h16.8v-3.44zM23.36 16.96h-15.2v-1.84h15.2v1.84z"></path>
<path fill="#fff" d="M23.040 20.24h-22.080v3.44h22.16v-3.44zM22.24 22.96h-20.48v-1.84h20.56v1.84z"></path>
<path fill="#fff" d="M7.6 29.76h22.16v-3.44h-22.16v3.44zM8.4 27.040h20.56v1.84h-20.56v-1.84z"></path>
</svg>
<svg id="icon-watch" width="32" height="32" viewBox="0 0 32 32" x="0" y="168">
<path fill="#fff" d="M30 6.24h-13.040l4.64-4.64c0.16-0.16 0.16-0.4 0-0.56s-0.4-0.16-0.56 0l-5.040 5.040-5.040-5.040c-0.16-0.16-0.4-0.16-0.56 0s-0.16 0.4 0 0.56l4.64 4.64h-13.040c-0.24 0-0.4 0.24-0.4 0.4v21.36c0 0.24 0.16 0.4 0.4 0.4h5.36l-1.040 2.080c-0.080 0.16 0 0.4 0.16 0.56 0.080 0 0.080 0.080 0.16 0.080 0.16 0 0.32-0.080 0.32-0.24l1.2-2.48h15.52l1.2 2.48c0.080 0.16 0.24 0.24 0.32 0.24s0.16 0 0.16-0.080c0.16-0.080 0.24-0.32 0.16-0.56l-1.040-2.080h5.36c0.24 0 0.4-0.16 0.4-0.4v-21.36c0.16-0.16 0-0.4-0.24-0.4zM29.6 27.6h-27.2v-20.56h27.2v20.56z"></path>
<path fill="#fff" d="M13.36 22.32l6.64-4.96-6.64-5.040z"></path>
</svg>
<svg id="icon-comment" width="32" height="32" viewBox="0 0 32 32" x="0" y="210">
<path fill="#fff" d="M16 1.44c-8.32 0-15.040 6.16-15.040 13.68 0 4.48 2.4 8.72 6.4 11.28l-3.040 4.16c-0.080 0.16-0.080 0.32 0 0.48 0.080 0.080 0.24 0.16 0.32 0.16 0 0 0.080 0 0.080 0l11.28-2.32c8.32 0 15.040-6.16 15.040-13.76 0-7.52-6.72-13.68-15.040-13.68zM16 28.080c0 0-0.080 0-0.080 0l-10.32 2.16 2.64-3.68c0.080-0.080 0.080-0.24 0.080-0.32s-0.080-0.24-0.16-0.24c-4-2.4-6.4-6.4-6.4-10.8 0-7.12 6.4-12.96 14.24-12.96s14.24 5.76 14.24 12.88-6.4 12.96-14.24 12.96z"></path>
<path fill="#fff" d="M8 9.52h16v1.6h-16v-1.6z"></path>
<path fill="#fff" d="M8 14.32h16v1.6h-16v-1.6z"></path>
<path fill="#fff" d="M8 19.12h11.2v1.6h-11.2v-1.6z"></path>
</svg>
<svg id="icon-fullscreen" width="32" height="32" viewBox="0 0 32 32" x="0" y="252">
<path fill="#fff" d="M2.56 13.6h0.8v-9.68l7.28 7.28 0.56-0.56-7.28-7.28h9.68v-0.8h-11.040z"></path>
<path fill="#fff" d="M18.4 2.56v0.8h9.68l-7.28 7.28 0.56 0.56 7.28-7.28v9.68h0.8v-11.040z"></path>
<path fill="#fff" d="M28.64 28.080l-7.28-7.28-0.56 0.56 7.28 7.28h-9.68v0.8h11.040v-11.040h-0.8z"></path>
<path fill="#fff" d="M11.2 21.36l-0.56-0.56-7.28 7.28v-9.68h-0.8v11.040h11.040v-0.8h-9.68z"></path>
</svg>
<svg id="icon-fullscreen_close" width="32" height="32" viewBox="0 0 32 32" x="0" y="294">
<path fill="#fff" d="M12.16 11.6l-7.84-7.92-0.64 0.64 7.92 7.84h-7.040v0.8h8.4v-8.4h-0.8z"></path>
<path fill="#fff" d="M27.44 12.16h-7.040l7.92-7.84-0.64-0.64-7.84 7.92v-7.040h-0.8v8.4h8.4z"></path>
<path fill="#fff" d="M27.44 19.84v-0.8h-8.4v8.4h0.8v-7.040l7.84 7.92 0.64-0.64-7.92-7.84z"></path>
<path fill="#fff" d="M4.56 19.84h7.040l-7.92 7.84 0.64 0.64 7.84-7.92v7.040h0.8v-8.4h-8.4z"></path>
</svg>
</svg>
